<svg width="381" height="71" viewBox="0 0 381 71" fill="none" xmlns="http://www.w3.org/2000/svg">
<rect y="4.95349" width="7.18226" height="66.0465" rx="3.59113" fill="#9440FF"/>
<rect x="28.729" y="4.95349" width="7.18226" height="66.0465" rx="3.59113" fill="#9440FF"/>
<rect x="57.4581" y="4.95349" width="7.18226" height="66.0465" rx="3.59113" fill="#9440FF"/>
<rect x="14.3645" width="7.18226" height="66.0465" rx="3.59113" fill="#1E2772"/>
<rect x="43.0936" width="7.18226" height="66.0465" rx="3.59113" fill="#1E2772"/>
<g filter="url(#filter0_d_3303_198)">
<path d="M88.9816 23.09V25.31H79.8916V32.36H87.2716V34.58H79.8916V44H77.1616V23.09H88.9816ZM107.279 35.15C107.279 35.67 107.249 36.22 107.189 36.8H94.0488C94.1488 38.42 94.6988 39.69 95.6988 40.61C96.7188 41.51 97.9488 41.96 99.3888 41.96C100.569 41.96 101.549 41.69 102.329 41.15C103.129 40.59 103.689 39.85 104.009 38.93H106.949C106.509 40.51 105.629 41.8 104.309 42.8C102.989 43.78 101.349 44.27 99.3888 44.27C97.8288 44.27 96.4288 43.92 95.1888 43.22C93.9688 42.52 93.0088 41.53 92.3088 40.25C91.6088 38.95 91.2588 37.45 91.2588 35.75C91.2588 34.05 91.5988 32.56 92.2788 31.28C92.9588 30 93.9088 29.02 95.1288 28.34C96.3688 27.64 97.7888 27.29 99.3888 27.29C100.949 27.29 102.329 27.63 103.529 28.31C104.729 28.99 105.649 29.93 106.289 31.13C106.949 32.31 107.279 33.65 107.279 35.15ZM104.459 34.58C104.459 33.54 104.229 32.65 103.769 31.91C103.309 31.15 102.679 30.58 101.879 30.2C101.099 29.8 100.229 29.6 99.2688 29.6C97.8888 29.6 96.7088 30.04 95.7288 30.92C94.7688 31.8 94.2188 33.02 94.0788 34.58H104.459ZM125.882 35.15C125.882 35.67 125.852 36.22 125.792 36.8H112.652C112.752 38.42 113.302 39.69 114.302 40.61C115.322 41.51 116.552 41.96 117.992 41.96C119.172 41.96 120.152 41.69 120.932 41.15C121.732 40.59 122.292 39.85 122.612 38.93H125.552C125.112 40.51 124.232 41.8 122.912 42.8C121.592 43.78 119.952 44.27 117.992 44.27C116.432 44.27 115.032 43.92 113.792 43.22C112.572 42.52 111.612 41.53 110.912 40.25C110.212 38.95 109.862 37.45 109.862 35.75C109.862 34.05 110.202 32.56 110.882 31.28C111.562 30 112.512 29.02 113.732 28.34C114.972 27.64 116.392 27.29 117.992 27.29C119.552 27.29 120.932 27.63 122.132 28.31C123.332 28.99 124.252 29.93 124.892 31.13C125.552 32.31 125.882 33.65 125.882 35.15ZM123.062 34.58C123.062 33.54 122.832 32.65 122.372 31.91C121.912 31.15 121.282 30.58 120.482 30.2C119.702 29.8 118.832 29.6 117.872 29.6C116.492 29.6 115.312 30.04 114.332 30.92C113.372 31.8 112.822 33.02 112.682 34.58H123.062ZM128.466 35.72C128.466 34.04 128.806 32.57 129.486 31.31C130.166 30.03 131.096 29.04 132.276 28.34C133.476 27.64 134.816 27.29 136.296 27.29C137.576 27.29 138.766 27.59 139.866 28.19C140.966 28.77 141.806 29.54 142.386 30.5V21.8H145.146V44H142.386V40.91C141.846 41.89 141.046 42.7 139.986 43.34C138.926 43.96 137.686 44.27 136.266 44.27C134.806 44.27 133.476 43.91 132.276 43.19C131.096 42.47 130.166 41.46 129.486 40.16C128.806 38.86 128.466 37.38 128.466 35.72ZM142.386 35.75C142.386 34.51 142.136 33.43 141.636 32.51C141.136 31.59 140.456 30.89 139.596 30.41C138.756 29.91 137.826 29.66 136.806 29.66C135.786 29.66 134.856 29.9 134.016 30.38C133.176 30.86 132.506 31.56 132.006 32.48C131.506 33.4 131.256 34.48 131.256 35.72C131.256 36.98 131.506 38.08 132.006 39.02C132.506 39.94 133.176 40.65 134.016 41.15C134.856 41.63 135.786 41.87 136.806 41.87C137.826 41.87 138.756 41.63 139.596 41.15C140.456 40.65 141.136 39.94 141.636 39.02C142.136 38.08 142.386 36.99 142.386 35.75ZM152.489 30.62C153.049 29.64 153.869 28.84 154.949 28.22C156.029 27.6 157.259 27.29 158.639 27.29C160.119 27.29 161.449 27.64 162.629 28.34C163.809 29.04 164.739 30.03 165.419 31.31C166.099 32.57 166.439 34.04 166.439 35.72C166.439 37.38 166.099 38.86 165.419 40.16C164.739 41.46 163.799 42.47 162.599 43.19C161.419 43.91 160.099 44.27 158.639 44.27C157.219 44.27 155.969 43.96 154.889 43.34C153.829 42.72 153.029 41.93 152.489 40.97V44H149.759V21.8H152.489V30.62ZM163.649 35.72C163.649 34.48 163.399 33.4 162.899 32.48C162.399 31.56 161.719 30.86 160.859 30.38C160.019 29.9 159.089 29.66 158.069 29.66C157.069 29.66 156.139 29.91 155.279 30.41C154.439 30.89 153.759 31.6 153.239 32.54C152.739 33.46 152.489 34.53 152.489 35.75C152.489 36.99 152.739 38.08 153.239 39.02C153.759 39.94 154.439 40.65 155.279 41.15C156.139 41.63 157.069 41.87 158.069 41.87C159.089 41.87 160.019 41.63 160.859 41.15C161.719 40.65 162.399 39.94 162.899 39.02C163.399 38.08 163.649 36.98 163.649 35.72ZM169.013 35.72C169.013 34.04 169.353 32.57 170.033 31.31C170.713 30.03 171.643 29.04 172.823 28.34C174.023 27.64 175.353 27.29 176.813 27.29C178.253 27.29 179.503 27.6 180.563 28.22C181.623 28.84 182.413 29.62 182.933 30.56V27.56H185.693V44H182.933V40.94C182.393 41.9 181.583 42.7 180.503 43.34C179.443 43.96 178.203 44.27 176.783 44.27C175.323 44.27 174.003 43.91 172.823 43.19C171.643 42.47 170.713 41.46 170.033 40.16C169.353 38.86 169.013 37.38 169.013 35.72ZM182.933 35.75C182.933 34.51 182.683 33.43 182.183 32.51C181.683 31.59 181.003 30.89 180.143 30.41C179.303 29.91 178.373 29.66 177.353 29.66C176.333 29.66 175.403 29.9 174.563 30.38C173.723 30.86 173.053 31.56 172.553 32.48C172.053 33.4 171.803 34.48 171.803 35.72C171.803 36.98 172.053 38.08 172.553 39.02C173.053 39.94 173.723 40.65 174.563 41.15C175.403 41.63 176.333 41.87 177.353 41.87C178.373 41.87 179.303 41.63 180.143 41.15C181.003 40.65 181.683 39.94 182.183 39.02C182.683 38.08 182.933 36.99 182.933 35.75ZM189.286 35.75C189.286 34.05 189.626 32.57 190.306 31.31C190.986 30.03 191.926 29.04 193.126 28.34C194.346 27.64 195.736 27.29 197.296 27.29C199.316 27.29 200.976 27.78 202.276 28.76C203.596 29.74 204.466 31.1 204.886 32.84H201.946C201.666 31.84 201.116 31.05 200.296 30.47C199.496 29.89 198.496 29.6 197.296 29.6C195.736 29.6 194.476 30.14 193.516 31.22C192.556 32.28 192.076 33.79 192.076 35.75C192.076 37.73 192.556 39.26 193.516 40.34C194.476 41.42 195.736 41.96 197.296 41.96C198.496 41.96 199.496 41.68 200.296 41.12C201.096 40.56 201.646 39.76 201.946 38.72H204.886C204.446 40.4 203.566 41.75 202.246 42.77C200.926 43.77 199.276 44.27 197.296 44.27C195.736 44.27 194.346 43.92 193.126 43.22C191.926 42.52 190.986 41.53 190.306 40.25C189.626 38.97 189.286 37.47 189.286 35.75ZM217.709 44L211.259 36.74V44H208.529V21.8H211.259V34.85L217.589 27.56H221.399L213.659 35.75L221.429 44H217.709ZM230.946 33.53C230.946 31.49 231.406 29.66 232.326 28.04C233.246 26.4 234.496 25.12 236.076 24.2C237.676 23.28 239.446 22.82 241.386 22.82C243.666 22.82 245.656 23.37 247.356 24.47C249.056 25.57 250.296 27.13 251.076 29.15H247.806C247.226 27.89 246.386 26.92 245.286 26.24C244.206 25.56 242.906 25.22 241.386 25.22C239.926 25.22 238.616 25.56 237.456 26.24C236.296 26.92 235.386 27.89 234.726 29.15C234.066 30.39 233.736 31.85 233.736 33.53C233.736 35.19 234.066 36.65 234.726 37.91C235.386 39.15 236.296 40.11 237.456 40.79C238.616 41.47 239.926 41.81 241.386 41.81C242.906 41.81 244.206 41.48 245.286 40.82C246.386 40.14 247.226 39.17 247.806 37.91H251.076C250.296 39.91 249.056 41.46 247.356 42.56C245.656 43.64 243.666 44.18 241.386 44.18C239.446 44.18 237.676 43.73 236.076 42.83C234.496 41.91 233.246 40.64 232.326 39.02C231.406 37.4 230.946 35.57 230.946 33.53ZM254.12 35.72C254.12 34.04 254.46 32.57 255.14 31.31C255.82 30.03 256.75 29.04 257.93 28.34C259.13 27.64 260.46 27.29 261.92 27.29C263.36 27.29 264.61 27.6 265.67 28.22C266.73 28.84 267.52 29.62 268.04 30.56V27.56H270.8V44H268.04V40.94C267.5 41.9 266.69 42.7 265.61 43.34C264.55 43.96 263.31 44.27 261.89 44.27C260.43 44.27 259.11 43.91 257.93 43.19C256.75 42.47 255.82 41.46 255.14 40.16C254.46 38.86 254.12 37.38 254.12 35.72ZM268.04 35.75C268.04 34.51 267.79 33.43 267.29 32.51C266.79 31.59 266.11 30.89 265.25 30.41C264.41 29.91 263.48 29.66 262.46 29.66C261.44 29.66 260.51 29.9 259.67 30.38C258.83 30.86 258.16 31.56 257.66 32.48C257.16 33.4 256.91 34.48 256.91 35.72C256.91 36.98 257.16 38.08 257.66 39.02C258.16 39.94 258.83 40.65 259.67 41.15C260.51 41.63 261.44 41.87 262.46 41.87C263.48 41.87 264.41 41.63 265.25 41.15C266.11 40.65 266.79 39.94 267.29 39.02C267.79 38.08 268.04 36.99 268.04 35.75ZM295.184 27.26C296.464 27.26 297.604 27.53 298.604 28.07C299.604 28.59 300.394 29.38 300.974 30.44C301.554 31.5 301.844 32.79 301.844 34.31V44H299.144V34.7C299.144 33.06 298.734 31.81 297.914 30.95C297.114 30.07 296.024 29.63 294.644 29.63C293.224 29.63 292.094 30.09 291.254 31.01C290.414 31.91 289.994 33.22 289.994 34.94V44H287.294V34.7C287.294 33.06 286.884 31.81 286.064 30.95C285.264 30.07 284.174 29.63 282.794 29.63C281.374 29.63 280.244 30.09 279.404 31.01C278.564 31.91 278.144 33.22 278.144 34.94V44H275.414V27.56H278.144V29.93C278.684 29.07 279.404 28.41 280.304 27.95C281.224 27.49 282.234 27.26 283.334 27.26C284.714 27.26 285.934 27.57 286.994 28.19C288.054 28.81 288.844 29.72 289.364 30.92C289.824 29.76 290.584 28.86 291.644 28.22C292.704 27.58 293.884 27.26 295.184 27.26ZM309.052 30.59C309.592 29.65 310.392 28.87 311.452 28.25C312.532 27.61 313.782 27.29 315.202 27.29C316.662 27.29 317.982 27.64 319.162 28.34C320.362 29.04 321.302 30.03 321.982 31.31C322.662 32.57 323.002 34.04 323.002 35.72C323.002 37.38 322.662 38.86 321.982 40.16C321.302 41.46 320.362 42.47 319.162 43.19C317.982 43.91 316.662 44.27 315.202 44.27C313.802 44.27 312.562 43.96 311.482 43.34C310.422 42.7 309.612 41.91 309.052 40.97V51.8H306.322V27.56H309.052V30.59ZM320.212 35.72C320.212 34.48 319.962 33.4 319.462 32.48C318.962 31.56 318.282 30.86 317.422 30.38C316.582 29.9 315.652 29.66 314.632 29.66C313.632 29.66 312.702 29.91 311.842 30.41C311.002 30.89 310.322 31.6 309.802 32.54C309.302 33.46 309.052 34.53 309.052 35.75C309.052 36.99 309.302 38.08 309.802 39.02C310.322 39.94 311.002 40.65 311.842 41.15C312.702 41.63 313.632 41.87 314.632 41.87C315.652 41.87 316.582 41.63 317.422 41.15C318.282 40.65 318.962 39.94 319.462 39.02C319.962 38.08 320.212 36.98 320.212 35.72ZM341.175 27.56V44H338.445V41.57C337.925 42.41 337.195 43.07 336.255 43.55C335.335 44.01 334.315 44.24 333.195 44.24C331.915 44.24 330.765 43.98 329.745 43.46C328.725 42.92 327.915 42.12 327.315 41.06C326.735 40 326.445 38.71 326.445 37.19V27.56H329.145V36.83C329.145 38.45 329.555 39.7 330.375 40.58C331.195 41.44 332.315 41.87 333.735 41.87C335.195 41.87 336.345 41.42 337.185 40.52C338.025 39.62 338.445 38.31 338.445 36.59V27.56H341.175ZM351.605 44.27C350.345 44.27 349.215 44.06 348.215 43.64C347.215 43.2 346.425 42.6 345.845 41.84C345.265 41.06 344.945 40.17 344.885 39.17H347.705C347.785 39.99 348.165 40.66 348.845 41.18C349.545 41.7 350.455 41.96 351.575 41.96C352.615 41.96 353.435 41.73 354.035 41.27C354.635 40.81 354.935 40.23 354.935 39.53C354.935 38.81 354.615 38.28 353.975 37.94C353.335 37.58 352.345 37.23 351.005 36.89C349.785 36.57 348.785 36.25 348.005 35.93C347.245 35.59 346.585 35.1 346.025 34.46C345.485 33.8 345.215 32.94 345.215 31.88C345.215 31.04 345.465 30.27 345.965 29.57C346.465 28.87 347.175 28.32 348.095 27.92C349.015 27.5 350.065 27.29 351.245 27.29C353.065 27.29 354.535 27.75 355.655 28.67C356.775 29.59 357.375 30.85 357.455 32.45H354.725C354.665 31.59 354.315 30.9 353.675 30.38C353.055 29.86 352.215 29.6 351.155 29.6C350.175 29.6 349.395 29.81 348.815 30.23C348.235 30.65 347.945 31.2 347.945 31.88C347.945 32.42 348.115 32.87 348.455 33.23C348.815 33.57 349.255 33.85 349.775 34.07C350.315 34.27 351.055 34.5 351.995 34.76C353.175 35.08 354.135 35.4 354.875 35.72C355.615 36.02 356.245 36.48 356.765 37.1C357.305 37.72 357.585 38.53 357.605 39.53C357.605 40.43 357.355 41.24 356.855 41.96C356.355 42.68 355.645 43.25 354.725 43.67C353.825 44.07 352.785 44.27 351.605 44.27Z" fill="black"/>
</g>
<defs>
<filter id="filter0_d_3303_198" x="73.1616" y="21.8" width="288.443" height="38" filterUnits="userSpaceOnUse" color-interpolation-filters="sRGB">
<feFlood flood-opacity="0" result="BackgroundImageFix"/>
<feColorMatrix in="SourceAlpha" type="matrix" values="0 0 0 0 0 0 0 0 0 0 0 0 0 0 0 0 0 0 127 0" result="hardAlpha"/>
<feOffset dy="4"/>
<feGaussianBlur stdDeviation="2"/>
<feComposite in2="hardAlpha" operator="out"/>
<feColorMatrix type="matrix" values="0 0 0 0 0 0 0 0 0 0 0 0 0 0 0 0 0 0 0.25 0"/>
<feBlend mode="normal" in2="BackgroundImageFix" result="effect1_dropShadow_3303_198"/>
<feBlend mode="normal" in="SourceGraphic" in2="effect1_dropShadow_3303_198" result="shape"/>
</filter>
</defs>
</svg>
